<?xml version="1.0" encoding="utf-8"?>
<!-- Generator: Adobe Illustrator 18.1.1, SVG Export Plug-In . SVG Version: 6.00 Build 0)  -->
<svg version="1.1" id="Layer_1" xmlns="http://www.w3.org/2000/svg" xmlns:xlink="http://www.w3.org/1999/xlink" x="0px" y="0px"
	 viewBox="0 0 50 50" enable-background="new 0 0 50 50" xml:space="preserve">
<g>
	<rect x="23.6" y="1.2" width="1.6" height="3.6"/>
	<polygon points="40.3,5.3 39,4.3 41,1.7 42.3,2.7 	"/>
	<polygon points="6.7,2.6 8,1.7 10,4.2 8.7,5.2 	"/>
	<g>
		<path d="M37.7,7.7H11.3L6,15.1l18.5,25.7l18.5-25.7L37.7,7.7z M24.6,9.4l4.1,5.8h-8.3l4.1-5.8H24.6z M18.3,15.1L18.3,15.1
			l-4.1-5.8h8.2L18.3,15.1z M29.7,16.7l-5.2,20l-5.2-20H29.7L29.7,16.7z M30.7,15.1l-4.1-5.8h8.3L30.7,15.1L30.7,15.1z M12.1,9.4
			L12.1,9.4l4.2,5.8H8L12.1,9.4z M17.7,16.7l4.8,18.6L9.1,16.7H17.7L17.7,16.7z M26.6,35.3l4.8-18.5h8.6L26.6,35.3z M32.8,15.1
			l4.1-5.8h0l4.1,5.8H32.8z"/>
	</g>
	<rect x="23.7" y="45.2" width="1.6" height="3.6"/>
	<polygon points="31.4,38.2 32.4,36.9 35,38.8 34,40.1 	"/>
	<polygon points="38.7,28.1 39.7,26.8 42.3,28.8 41.3,30.1 	"/>
	<polygon points="15,40.1 14,38.8 16.6,36.9 17.6,38.2 	"/>
	<polygon points="7.7,30.1 6.7,28.8 9.3,26.8 10.3,28.1 	"/>
</g>
</svg>
